<svg width="1920" height="3847" viewBox="0 0 1920 3847" fill="none" xmlns="http://www.w3.org/2000/svg">
<mask id="mask0" mask-type="alpha" maskUnits="userSpaceOnUse" x="0" y="0" width="1920" height="3847">
<rect y="0.921875" width="1920" height="3846.04" fill="#C4C4C4"/>
</mask>
<g mask="url(#mask0)">
<rect width="1922.1" height="659.566" transform="matrix(-1 0 0 1 1922.1 2560.32)" fill="#404497"/>
<rect width="212.973" height="426.96" transform="matrix(-1 0 0 1 854.106 2565.03)" fill="#AB9FF1"/>
<rect width="209.841" height="428.004" transform="matrix(-1 0 0 1 1707.04 2565.03)" fill="#AB9FF1"/>
<rect width="212.973" height="426.96" transform="matrix(-1 0 0 1 425.028 2779.04)" fill="#AB9FF1"/>
<rect width="213" height="215.985" transform="matrix(-1 0 0 1 213 2564.99)" fill="#AB9FF1"/>
<rect width="215.061" height="255.758" transform="matrix(-1 0 0 1 1922.1 2950.24)" fill="#AB9FF1"/>
<rect width="428" height="215.985" transform="matrix(-1 0 0 1 1497 2564.99)" fill="#6550DE"/>
<path fill-rule="evenodd" clip-rule="evenodd" d="M1069.17 2991.99C1069.16 3110.18 972.821 3205.99 854.628 3205.99C736.435 3205.99 640.097 3110.18 640.089 2991.99L1069.17 2991.99Z" fill="#2C9AFF"/>
<path d="M1068.12 2779.56C1068.12 2661.66 972.529 2566.08 854.628 2566.08C736.726 2566.08 641.133 2661.66 641.133 2779.56C641.133 2897.46 736.726 2993.04 854.628 2993.04C972.529 2993.04 1068.12 2897.46 1068.12 2779.56Z" fill="#F56748"/>
<path d="M-0.918213 2781.12L-0.918208 2888.12C-0.918206 2947.22 46.9911 2995.13 106.09 2995.13C165.189 2995.13 213.098 2947.22 213.098 2888.12L213.098 2781.12L-0.918213 2781.12Z" fill="#2C9AFF"/>
<path d="M640.089 2994.62C640.089 2876.71 544.504 2781.12 426.594 2781.12H213.1V2992.5C213.1 3110.41 308.685 3206 426.594 3206H640.089V2994.62Z" fill="#FEC246"/>
<path d="M1922.1 2565.03H1708.07C1589.88 2565.03 1494.07 2660.85 1494.07 2779.04C1494.07 2897.23 1589.88 2993.04 1708.07 2993.04H1922.1V2565.03Z" fill="#EDF0F3"/>
<path d="M-3.0061 3099.52C-3.0061 3040.14 45.1406 2991.99 104.528 2991.99C163.911 2991.99 212.055 3040.13 212.055 3099.52C212.055 3158.9 163.915 3207.04 104.532 3207.04H-3.0061V3099.52Z" fill="#FFCFCF"/>
<path d="M1282.14 2673.61C1282.14 2614.22 1330.29 2566.08 1389.67 2566.08C1449.06 2566.08 1497.2 2614.22 1497.2 2673.6C1497.2 2732.98 1449.06 2781.12 1389.68 2781.12H1282.14V2673.61Z" fill="#FFCFCF"/>
<path d="M857.238 3098.48C857.238 3039.09 905.384 2990.95 964.772 2990.95C1024.15 2990.95 1072.3 3039.09 1072.3 3098.47C1072.3 3157.86 1024.16 3206 964.775 3206H857.238V3098.48Z" fill="#AB9FF1"/>
<path d="M1491.98 3100.57C1491.98 3041.18 1540.13 2993.04 1599.51 2993.04C1658.9 2993.04 1707.04 3041.18 1707.04 3100.56C1707.04 3159.94 1658.9 3208.08 1599.52 3208.08L1491.98 3208.08L1491.98 3100.57Z" fill="#FFCFCF"/>
<path d="M106.62 2565.03C166.003 2565.03 214.143 2613.17 214.143 2672.56C214.143 2731.94 166 2780.08 106.616 2780.08C47.2291 2780.08 -0.91758 2731.94 -0.917583 2672.55L-0.917587 2565.03L106.62 2565.03Z" fill="#6550DE"/>
<path d="M1814.57 2564.99C1873.96 2564.99 1922.1 2613.67 1922.1 2673.06C1922.1 2732.44 1873.96 2781.12 1814.57 2781.12C1755.18 2781.12 1707.04 2732.98 1707.04 2673.59L1707.04 2564.99L1814.57 2564.99Z" fill="#6550DE"/>
<path fill-rule="evenodd" clip-rule="evenodd" d="M427.638 2566.08C546.117 2566.08 642.177 2662.12 642.177 2780.6C642.177 2898.89 546.419 2994.82 428.198 2995.13V2781.16H213.1C213.099 2780.98 213.099 2780.79 213.099 2780.6C213.099 2662.12 309.159 2566.08 427.638 2566.08Z" fill="#FFCFCF"/>
<path fill-rule="evenodd" clip-rule="evenodd" d="M748.663 3207.04C689.28 3207.04 641.133 3158.9 641.133 3099.52C641.133 3040.23 689.128 2992.15 748.383 2991.99L748.383 3099.24L856.193 3099.24C856.194 3099.33 856.194 3099.42 856.194 3099.52C856.194 3158.9 808.047 3207.04 748.663 3207.04Z" fill="#6550DE"/>
<path fill-rule="evenodd" clip-rule="evenodd" d="M320.629 2996.17C261.246 2996.17 213.099 2948.03 213.099 2888.65C213.099 2829.36 261.094 2781.27 320.348 2781.12L320.348 2888.36L428.159 2888.36C428.159 2888.46 428.159 2888.55 428.159 2888.65C428.159 2948.03 380.013 2996.17 320.629 2996.17Z" fill="#EDF0F3"/>
<path fill-rule="evenodd" clip-rule="evenodd" d="M1496.16 2781.12C1496.15 2899.31 1400.33 2995.13 1282.14 2995.13C1163.95 2995.13 1068.13 2899.31 1068.12 2781.12L1496.16 2781.12Z" fill="#E3DEFF"/>
<path fill-rule="evenodd" clip-rule="evenodd" d="M1175.13 2567.12C1234.23 2567.12 1282.14 2615.03 1282.14 2674.12C1282.14 2733.12 1234.38 2780.97 1175.41 2781.12V2674.4H1068.12C1068.12 2674.31 1068.12 2674.22 1068.12 2674.12C1068.12 2615.03 1116.04 2567.12 1175.13 2567.12Z" fill="#2C9AFF"/>
<path fill-rule="evenodd" clip-rule="evenodd" d="M1815.09 2780.6C1874.19 2780.6 1922.1 2828.51 1922.1 2887.6C1922.1 2946.6 1874.34 2994.45 1815.37 2994.6V2887.88H1708.08C1708.08 2887.79 1708.08 2887.7 1708.08 2887.6C1708.08 2828.51 1756 2780.6 1815.09 2780.6Z" fill="#AB9FF1"/>
<path d="M212.938 2673.52C212.938 2614.13 261.085 2565.99 320.472 2565.99C379.856 2565.99 427.999 2614.13 427.999 2673.51C427.999 2732.9 379.859 2781.04 320.476 2781.04H212.938V2673.52Z" fill="#6550DE"/>
<path fill-rule="evenodd" clip-rule="evenodd" d="M1281.62 3208.08C1163.71 3208.08 1067.08 3112.5 1067.08 2994.6C1067.08 2876.89 1163.41 2781.42 1281.06 2781.12L1281.06 2994.05L1496.15 2994.05C1496.16 2994.23 1496.16 2994.42 1496.16 2994.6C1496.16 3112.5 1399.52 3208.08 1281.62 3208.08Z" fill="#FEC246"/>
<path d="M1922.1 3100.55C1922.1 3159.94 1873.95 3208.08 1814.57 3208.08C1755.18 3208.08 1707.04 3159.94 1707.04 3100.56C1707.04 3041.18 1755.18 2993.04 1814.56 2993.04L1922.1 2993.04L1922.1 3100.55Z" fill="#2C9AFF"/>
<rect x="-3.00513" y="3206" width="1922.1" height="641.006" fill="#404497"/>
<rect x="1064.99" y="3208.08" width="212.973" height="424.902" fill="#AB9FF1"/>
<rect x="212.055" y="3206" width="209.841" height="428.033" fill="#AB9FF1"/>
<rect x="1494.07" y="3420.01" width="212.973" height="426.989" fill="#AB9FF1"/>
<rect x="1707.04" y="3205.95" width="212.056" height="216" fill="#AB9FF1"/>
<rect x="-3.00488" y="3591.23" width="215.061" height="255.776" fill="#AB9FF1"/>
<rect x="422.096" y="3205.95" width="428" height="216" fill="#6550DE"/>
<path fill-rule="evenodd" clip-rule="evenodd" d="M849.929 3632.99C849.93 3751.18 946.27 3847 1064.47 3847C1182.67 3847 1279.01 3751.18 1279.01 3632.99L849.929 3632.99Z" fill="#2C9AFF"/>
<path d="M850.974 3420.53C850.974 3302.62 946.559 3207.04 1064.47 3207.04C1182.38 3207.04 1277.96 3302.62 1277.96 3420.53C1277.96 3538.44 1182.38 3634.03 1064.47 3634.03C946.559 3634.03 850.974 3538.44 850.974 3420.53Z" fill="#F56748"/>
<path d="M1920.01 3422.1L1920.01 3529.11C1920.01 3588.21 1872.1 3636.12 1813 3636.12C1753.91 3636.12 1706 3588.21 1706 3529.11L1706 3422.1L1920.01 3422.1Z" fill="#2C9AFF"/>
<path d="M1279.01 3635.6C1279.01 3517.69 1374.59 3422.1 1492.5 3422.1H1706V3633.51C1706 3751.42 1610.41 3847 1492.5 3847H1279.01V3635.6Z" fill="#FEC246"/>
<path d="M-3.00513 3206H211.012C329.21 3206 425.028 3301.81 425.028 3420.01C425.028 3538.21 329.21 3634.03 211.012 3634.03H-3.00513V3206Z" fill="#EDF0F3"/>
<path d="M1922.1 3740.52C1922.1 3681.13 1873.96 3632.99 1814.57 3632.99C1755.18 3632.99 1707.04 3681.13 1707.04 3740.52C1707.04 3799.9 1755.18 3848.05 1814.57 3848.05H1922.1V3740.52Z" fill="#FFCFCF"/>
<path d="M636.957 3314.57C636.957 3255.18 588.814 3207.04 529.427 3207.04C470.039 3207.04 421.896 3255.18 421.896 3314.57C421.896 3373.96 470.039 3422.1 529.427 3422.1H636.957V3314.57Z" fill="#FFCFCF"/>
<path d="M1061.86 3739.47C1061.86 3680.08 1013.72 3631.94 954.328 3631.94C894.941 3631.94 846.798 3680.08 846.798 3739.47C846.798 3798.86 894.941 3847 954.328 3847H1061.86V3739.47Z" fill="#AB9FF1"/>
<path d="M427.116 3741.56C427.116 3682.17 378.973 3634.03 319.586 3634.03C260.199 3634.03 212.056 3682.17 212.056 3741.56C212.056 3800.95 260.199 3849.09 319.586 3849.09L427.116 3849.09L427.116 3741.56Z" fill="#FFCFCF"/>
<path d="M1812.48 3207.04C1753.1 3207.04 1704.95 3255.18 1704.95 3314.57C1704.95 3373.96 1753.1 3422.1 1812.48 3422.1C1871.87 3422.1 1920.01 3373.96 1920.01 3314.57L1920.01 3207.04L1812.48 3207.04Z" fill="#6550DE"/>
<path d="M105.626 3206C46.2389 3206 -1.90405 3254.94 -1.90406 3314.33C-1.90406 3373.41 45.9922 3422.1 105.075 3422.1C164.158 3422.1 212.054 3374.2 212.054 3315.12L212.054 3206L105.626 3206Z" fill="#6550DE"/>
<path fill-rule="evenodd" clip-rule="evenodd" d="M1491.46 3207.04C1372.97 3207.04 1276.92 3303.09 1276.92 3421.58C1276.92 3539.88 1372.67 3635.82 1490.9 3636.12V3422.14H1706C1706 3421.95 1706 3421.77 1706 3421.58C1706 3303.09 1609.94 3207.04 1491.46 3207.04Z" fill="#FFCFCF"/>
<path fill-rule="evenodd" clip-rule="evenodd" d="M1170.43 3848.05C1229.82 3848.05 1277.96 3799.9 1277.96 3740.52C1277.96 3681.22 1229.97 3633.14 1170.71 3632.99L1170.71 3740.24L1062.9 3740.24C1062.9 3740.33 1062.9 3740.42 1062.9 3740.52C1062.9 3799.9 1111.05 3848.05 1170.43 3848.05Z" fill="#6550DE"/>
<path fill-rule="evenodd" clip-rule="evenodd" d="M1598.47 3637.16C1657.85 3637.16 1706 3589.02 1706 3529.63C1706 3470.34 1658 3422.25 1598.75 3422.1L1598.75 3529.35L1490.94 3529.35C1490.94 3529.44 1490.94 3529.54 1490.94 3529.63C1490.94 3589.02 1539.08 3637.16 1598.47 3637.16Z" fill="#EDF0F3"/>
<path fill-rule="evenodd" clip-rule="evenodd" d="M422.94 3422.1L422.94 3422.1C422.94 3540.3 518.759 3636.12 636.957 3636.12C755.155 3636.12 850.974 3540.3 850.974 3422.1L850.974 3422.1L422.94 3422.1Z" fill="#E3DEFF"/>
<path fill-rule="evenodd" clip-rule="evenodd" d="M743.965 3208.08C684.866 3208.08 636.957 3255.99 636.957 3315.09C636.957 3374.1 684.715 3421.95 743.686 3422.1V3315.37H850.973C850.974 3315.28 850.974 3315.19 850.974 3315.09C850.974 3255.99 803.064 3208.08 743.965 3208.08Z" fill="#2C9AFF"/>
<path fill-rule="evenodd" clip-rule="evenodd" d="M104.003 3421.58C44.9041 3421.58 -3.00513 3469.49 -3.00513 3528.59C-3.00513 3587.59 44.7532 3635.44 103.724 3635.6V3528.87H211.011C211.011 3528.77 211.012 3528.68 211.012 3528.59C211.012 3469.49 163.102 3421.58 104.003 3421.58Z" fill="#AB9FF1"/>
<path d="M1706.16 3314.48C1706.16 3255.1 1658.01 3206.95 1598.63 3206.95C1539.24 3206.95 1491.1 3255.1 1491.1 3314.48C1491.1 3373.87 1539.24 3422.01 1598.63 3422.01H1706.16V3314.48Z" fill="#6550DE"/>
<path fill-rule="evenodd" clip-rule="evenodd" d="M637.479 3849.09C755.389 3849.09 852.018 3753.5 852.018 3635.59C852.018 3517.87 755.695 3422.4 638.04 3422.1L638.04 3635.04L422.941 3635.04C422.941 3635.22 422.94 3635.41 422.94 3635.59C422.94 3753.5 519.569 3849.09 637.479 3849.09Z" fill="#FEC246"/>
<path d="M-3.00511 3741.56C-3.00512 3800.95 45.1379 3849.09 104.525 3849.09C163.913 3849.09 212.056 3800.95 212.056 3741.56C212.056 3682.17 163.913 3634.03 104.525 3634.03L-3.00509 3634.03L-3.00511 3741.56Z" fill="#2C9AFF"/>
<rect x="-3.00513" y="1923.98" width="1922.1" height="641.006" fill="#404497"/>
<rect x="1064.99" y="1923.98" width="212.973" height="426.989" fill="#AB9FF1"/>
<rect x="212.055" y="1923.98" width="209.841" height="428.033" fill="#AB9FF1"/>
<rect x="1494.07" y="2138" width="212.973" height="426.989" fill="#AB9FF1"/>
<rect x="1706.1" y="1923.94" width="213" height="216" fill="#AB9FF1"/>
<rect x="-3.00488" y="2309.21" width="215.061" height="255.776" fill="#AB9FF1"/>
<rect x="422.096" y="1923.94" width="428" height="216" fill="#6550DE"/>
<path fill-rule="evenodd" clip-rule="evenodd" d="M849.929 2350.97C849.93 2469.17 946.27 2564.99 1064.47 2564.99C1182.67 2564.99 1279.01 2469.17 1279.01 2350.97L849.929 2350.97Z" fill="#2C9AFF"/>
<path d="M850.974 2138.52C850.974 2020.61 946.559 1925.03 1064.47 1925.03C1182.38 1925.03 1277.96 2020.61 1277.96 2138.52C1277.96 2256.43 1182.38 2352.02 1064.47 2352.02C946.559 2352.02 850.974 2256.43 850.974 2138.52Z" fill="#F56748"/>
<path d="M1920.01 2140.09L1920.01 2247.1C1920.01 2306.2 1872.1 2354.11 1813 2354.11C1753.91 2354.11 1706 2306.2 1706 2247.1L1706 2140.09L1920.01 2140.09Z" fill="#2C9AFF"/>
<path d="M1279.01 2353.58C1279.01 2235.67 1374.59 2140.09 1492.5 2140.09H1706V2351.5C1706 2469.41 1610.41 2564.99 1492.5 2564.99H1279.01V2353.58Z" fill="#FEC246"/>
<path d="M-3.00513 1923.98H211.012C329.21 1923.98 425.028 2019.8 425.028 2138C425.028 2256.2 329.21 2352.02 211.012 2352.02H-3.00513V1923.98Z" fill="#EDF0F3"/>
<path d="M1922.1 2458.5C1922.1 2399.12 1873.96 2350.97 1814.57 2350.97C1755.18 2350.97 1707.04 2399.12 1707.04 2458.5C1707.04 2517.89 1755.18 2566.03 1814.57 2566.03H1922.1V2458.5Z" fill="#FFCFCF"/>
<path d="M636.957 2032.56C636.957 1973.17 588.814 1925.03 529.427 1925.03C470.039 1925.03 421.896 1973.17 421.896 2032.56C421.896 2091.95 470.039 2140.09 529.427 2140.09H636.957V2032.56Z" fill="#FFCFCF"/>
<path d="M1061.86 2457.46C1061.86 2398.07 1013.72 2349.93 954.328 2349.93C894.941 2349.93 846.798 2398.07 846.798 2457.46C846.798 2516.85 894.941 2564.99 954.328 2564.99H1061.86V2457.46Z" fill="#AB9FF1"/>
<path d="M427.116 2459.55C427.116 2400.16 378.973 2352.02 319.586 2352.02C260.199 2352.02 212.056 2400.16 212.056 2459.55C212.056 2518.94 260.199 2567.08 319.586 2567.08L427.116 2567.08L427.116 2459.55Z" fill="#FFCFCF"/>
<path d="M1812.48 1925.03C1753.1 1925.03 1704.95 1973.17 1704.95 2032.56C1704.95 2091.95 1753.1 2140.09 1812.48 2140.09C1871.87 2140.09 1920.01 2091.95 1920.01 2032.56L1920.01 1925.03L1812.48 1925.03Z" fill="#6550DE"/>
<path d="M105.626 1923.98C46.239 1923.98 -1.90405 1972.65 -1.90406 2032.04C-1.90406 2091.42 46.2389 2140.09 105.626 2140.09C165.014 2140.09 213.157 2091.95 213.157 2032.56L213.157 1923.98L105.626 1923.98Z" fill="#6550DE"/>
<path fill-rule="evenodd" clip-rule="evenodd" d="M1491.46 1925.03C1372.97 1925.03 1276.92 2021.08 1276.92 2139.57C1276.92 2257.87 1372.67 2353.8 1490.9 2354.11V2140.13H1706C1706 2139.94 1706 2139.75 1706 2139.57C1706 2021.08 1609.94 1925.03 1491.46 1925.03Z" fill="#FFCFCF"/>
<path fill-rule="evenodd" clip-rule="evenodd" d="M1170.43 2566.03C1229.82 2566.03 1277.96 2517.89 1277.96 2458.5C1277.96 2399.21 1229.97 2351.13 1170.71 2350.97L1170.71 2458.22L1062.9 2458.22C1062.9 2458.32 1062.9 2458.41 1062.9 2458.5C1062.9 2517.89 1111.05 2566.03 1170.43 2566.03Z" fill="#6550DE"/>
<path fill-rule="evenodd" clip-rule="evenodd" d="M1598.47 2355.15C1657.85 2355.15 1706 2307.01 1706 2247.62C1706 2188.33 1658 2140.24 1598.75 2140.09L1598.75 2247.34L1490.94 2247.34C1490.94 2247.43 1490.94 2247.53 1490.94 2247.62C1490.94 2307.01 1539.08 2355.15 1598.47 2355.15Z" fill="#EDF0F3"/>
<path fill-rule="evenodd" clip-rule="evenodd" d="M422.94 2140.09L422.94 2140.09C422.94 2258.29 518.759 2354.11 636.957 2354.11C755.155 2354.11 850.974 2258.29 850.974 2140.09L850.974 2140.09L422.94 2140.09Z" fill="#E3DEFF"/>
<path fill-rule="evenodd" clip-rule="evenodd" d="M743.965 1926.07C684.866 1926.07 636.957 1973.98 636.957 2033.08C636.957 2092.09 684.715 2139.94 743.686 2140.09V2033.36H850.973C850.974 2033.27 850.974 2033.17 850.974 2033.08C850.974 1973.98 803.064 1926.07 743.965 1926.07Z" fill="#2C9AFF"/>
<path fill-rule="evenodd" clip-rule="evenodd" d="M104.003 2139.57C44.9041 2139.57 -3.00513 2187.48 -3.00513 2246.58C-3.00513 2305.58 44.7532 2353.43 103.724 2353.58V2246.86H211.011C211.011 2246.76 211.012 2246.67 211.012 2246.58C211.012 2187.48 163.102 2139.57 104.003 2139.57Z" fill="#AB9FF1"/>
<path d="M1706.16 2032.47C1706.16 1973.08 1658.01 1924.94 1598.63 1924.94C1539.24 1924.94 1491.1 1973.08 1491.1 2032.47C1491.1 2091.86 1539.24 2140 1598.63 2140H1706.16V2032.47Z" fill="#6550DE"/>
<path fill-rule="evenodd" clip-rule="evenodd" d="M637.479 2567.08C755.389 2567.08 852.018 2471.49 852.018 2353.58C852.018 2235.86 755.695 2140.39 638.04 2140.09L638.04 2353.03L422.941 2353.03C422.941 2353.21 422.94 2353.4 422.94 2353.58C422.94 2471.49 519.569 2567.08 637.479 2567.08Z" fill="#FEC246"/>
<path d="M-3.00511 2459.55C-3.00512 2518.94 45.1379 2567.08 104.525 2567.08C163.913 2567.08 212.056 2518.94 212.056 2459.55C212.056 2400.16 163.913 2352.02 104.525 2352.02L-3.00509 2352.02L-3.00511 2459.55Z" fill="#2C9AFF"/>
<rect x="-3.00513" y="641.972" width="1922.1" height="641.006" fill="#404497"/>
<rect x="1064.99" y="641.972" width="212.973" height="426.989" fill="#AB9FF1"/>
<rect x="212.055" y="641.972" width="209.841" height="428.033" fill="#AB9FF1"/>
<rect x="1494.07" y="855.988" width="212.973" height="426.989" fill="#AB9FF1"/>
<rect x="1706.1" y="641.928" width="213" height="216" fill="#AB9FF1"/>
<rect x="-3.00488" y="1027.2" width="215.061" height="255.776" fill="#AB9FF1"/>
<rect x="422.096" y="641.928" width="428" height="216" fill="#6550DE"/>
<path fill-rule="evenodd" clip-rule="evenodd" d="M849.929 1068.96C849.93 1187.16 946.27 1282.98 1064.47 1282.98C1182.67 1282.98 1279.01 1187.16 1279.01 1068.96L849.929 1068.96Z" fill="#2C9AFF"/>
<path d="M850.974 856.51C850.974 738.6 946.559 643.016 1064.47 643.016C1182.38 643.016 1277.96 738.6 1277.96 856.51C1277.96 974.42 1182.38 1070 1064.47 1070C946.559 1070 850.974 974.42 850.974 856.51Z" fill="#F56748"/>
<path d="M1920.01 858.076L1920.01 965.084C1920.01 1024.18 1872.1 1072.09 1813 1072.09C1753.91 1072.09 1706 1024.18 1706 965.085L1706 858.076L1920.01 858.076Z" fill="#2C9AFF"/>
<path d="M1279.01 1071.57C1279.01 953.661 1374.59 858.076 1492.5 858.076H1706V1069.48C1706 1187.39 1610.41 1282.98 1492.5 1282.98H1279.01V1071.57Z" fill="#FEC246"/>
<path d="M-3.00513 641.972H211.012C329.21 641.972 425.028 737.79 425.028 855.988C425.028 974.186 329.21 1070.01 211.012 1070.01H-3.00513V641.972Z" fill="#EDF0F3"/>
<path d="M1922.1 1176.49C1922.1 1117.1 1873.96 1068.96 1814.57 1068.96C1755.18 1068.96 1707.04 1117.1 1707.04 1176.49C1707.04 1235.88 1755.18 1284.02 1814.57 1284.02H1922.1V1176.49Z" fill="#FFCFCF"/>
<path d="M636.957 750.546C636.957 691.159 588.814 643.016 529.427 643.016C470.039 643.016 421.896 691.159 421.896 750.546C421.896 809.933 470.039 858.076 529.427 858.076H636.957V750.546Z" fill="#FFCFCF"/>
<path d="M1061.86 1175.45C1061.86 1116.06 1013.72 1067.92 954.328 1067.92C894.941 1067.92 846.798 1116.06 846.798 1175.45C846.798 1234.83 894.941 1282.98 954.328 1282.98H1061.86V1175.45Z" fill="#AB9FF1"/>
<path d="M1812.48 643.016C1753.1 643.016 1704.95 691.159 1704.95 750.546C1704.95 809.933 1753.1 858.076 1812.48 858.076C1871.87 858.076 1920.01 809.933 1920.01 750.546L1920.01 643.016L1812.48 643.016Z" fill="#6550DE"/>
<path d="M105.626 643.016C46.2389 643.016 -1.90405 691.159 -1.90406 750.546C-1.90406 809.933 46.2389 858.076 105.626 858.076C165.014 858.076 213.157 809.933 213.157 750.546L213.157 643.016L105.626 643.016Z" fill="#6550DE"/>
<path fill-rule="evenodd" clip-rule="evenodd" d="M1491.46 643.016C1372.97 643.016 1276.92 739.068 1276.92 857.555C1276.92 975.855 1372.67 1071.79 1490.9 1072.09V858.115H1706C1706 857.928 1706 857.742 1706 857.555C1706 739.068 1609.94 643.016 1491.46 643.016Z" fill="#FFCFCF"/>
<path fill-rule="evenodd" clip-rule="evenodd" d="M1170.43 1284.02C1229.82 1284.02 1277.96 1235.88 1277.96 1176.49C1277.96 1117.2 1229.97 1069.11 1170.71 1068.96L1170.71 1176.21L1062.9 1176.21C1062.9 1176.3 1062.9 1176.4 1062.9 1176.49C1062.9 1235.88 1111.05 1284.02 1170.43 1284.02Z" fill="#6550DE"/>
<path fill-rule="evenodd" clip-rule="evenodd" d="M1598.47 1073.14C1657.85 1073.14 1706 1024.99 1706 965.606C1706 906.312 1658 858.228 1598.75 858.076L1598.75 965.325L1490.94 965.325C1490.94 965.419 1490.94 965.512 1490.94 965.606C1490.94 1024.99 1539.08 1073.14 1598.47 1073.14Z" fill="#EDF0F3"/>
<path fill-rule="evenodd" clip-rule="evenodd" d="M422.94 858.076L422.94 858.076C422.94 976.274 518.759 1072.09 636.957 1072.09C755.155 1072.09 850.974 976.274 850.974 858.076L850.974 858.076L422.94 858.076Z" fill="#E3DEFF"/>
<path fill-rule="evenodd" clip-rule="evenodd" d="M743.965 644.06C684.866 644.06 636.957 691.969 636.957 751.068C636.957 810.074 684.715 857.925 743.686 858.076V751.347H850.973C850.974 751.254 850.974 751.161 850.974 751.068C850.974 691.969 803.064 644.06 743.965 644.06Z" fill="#2C9AFF"/>
<path fill-rule="evenodd" clip-rule="evenodd" d="M104.003 857.555C44.9041 857.555 -3.00513 905.464 -3.00513 964.563C-3.00513 1023.57 44.7532 1071.42 103.724 1071.57V964.842H211.011C211.011 964.749 211.012 964.656 211.012 964.563C211.012 905.464 163.102 857.555 104.003 857.555Z" fill="#AB9FF1"/>
<path d="M1706.16 750.458C1706.16 691.071 1658.01 642.928 1598.63 642.928C1539.24 642.928 1491.1 691.071 1491.1 750.458C1491.1 809.845 1539.24 857.988 1598.63 857.988H1706.16V750.458Z" fill="#6550DE"/>
<path fill-rule="evenodd" clip-rule="evenodd" d="M637.479 1285.07C755.389 1285.07 852.018 1189.48 852.018 1071.57C852.018 953.847 755.695 858.378 638.04 858.076L638.04 1071.01L422.941 1071.01C422.941 1071.2 422.94 1071.38 422.94 1071.57C422.94 1189.48 519.569 1285.07 637.479 1285.07Z" fill="#FEC246"/>
<path d="M-3.00511 1177.54C-3.00512 1236.92 45.1379 1285.07 104.525 1285.07C163.913 1285.07 212.056 1236.92 212.056 1177.54C212.056 1118.15 163.913 1070 104.525 1070L-3.00509 1070L-3.00511 1177.54Z" fill="#2C9AFF"/>
<path d="M429.204 1175.4C429.204 1116.02 381.061 1067.87 321.674 1067.87C262.286 1067.87 214.143 1116.02 214.143 1175.4C214.143 1234.79 262.286 1282.93 321.674 1282.93L429.204 1282.93L429.204 1175.4Z" fill="#FFCFCF"/>
<rect width="1922.1" height="640.962" transform="matrix(-1 0 0 1 1922.1 1283.02)" fill="#404497"/>
<rect width="212.973" height="426.96" transform="matrix(-1 0 0 1 854.106 1283.02)" fill="#AB9FF1"/>
<rect width="209.841" height="428.004" transform="matrix(-1 0 0 1 1707.04 1283.02)" fill="#AB9FF1"/>
<rect width="212.973" height="426.96" transform="matrix(-1 0 0 1 425.028 1497.02)" fill="#AB9FF1"/>
<rect width="213" height="215.985" transform="matrix(-1 0 0 1 213 1282.98)" fill="#AB9FF1"/>
<rect width="215.061" height="255.758" transform="matrix(-1 0 0 1 1922.1 1668.23)" fill="#AB9FF1"/>
<rect width="428" height="215.985" transform="matrix(-1 0 0 1 1497 1282.98)" fill="#6550DE"/>
<path fill-rule="evenodd" clip-rule="evenodd" d="M1069.17 1709.98C1069.16 1828.17 972.821 1923.98 854.628 1923.98C736.435 1923.98 640.097 1828.17 640.089 1709.98L1069.17 1709.98Z" fill="#2C9AFF"/>
<path d="M1068.12 1497.55C1068.12 1379.64 972.529 1284.07 854.628 1284.07C736.726 1284.07 641.133 1379.64 641.133 1497.55C641.133 1615.45 736.726 1711.03 854.628 1711.03C972.529 1711.03 1068.12 1615.45 1068.12 1497.55Z" fill="#F56748"/>
<path d="M-0.918213 1499.11L-0.918208 1606.11C-0.918206 1665.2 46.9911 1713.11 106.09 1713.11C165.189 1713.11 213.098 1665.2 213.098 1606.11L213.098 1499.11L-0.918213 1499.11Z" fill="#2C9AFF"/>
<path d="M640.089 1712.61C640.089 1594.7 544.504 1499.11 426.594 1499.11H213.1V1710.49C213.1 1828.4 308.685 1923.98 426.594 1923.98H640.089V1712.61Z" fill="#FEC246"/>
<path d="M1922.1 1283.02H1708.07C1589.88 1283.02 1494.07 1378.83 1494.07 1497.02C1494.07 1615.21 1589.88 1711.03 1708.07 1711.03H1922.1V1283.02Z" fill="#EDF0F3"/>
<path d="M-3.0061 1817.51C-3.0061 1758.13 45.1406 1709.98 104.528 1709.98C163.911 1709.98 212.055 1758.12 212.055 1817.51C212.055 1876.89 163.915 1925.03 104.532 1925.03H-3.0061V1817.51Z" fill="#FFCFCF"/>
<path d="M1282.14 1391.6C1282.14 1332.21 1330.29 1284.07 1389.67 1284.07C1449.06 1284.07 1497.2 1332.21 1497.2 1391.59C1497.2 1450.97 1449.06 1499.11 1389.68 1499.11H1282.14V1391.6Z" fill="#FFCFCF"/>
<path d="M857.238 1816.47C857.238 1757.08 905.384 1708.94 964.772 1708.94C1024.15 1708.94 1072.3 1757.08 1072.3 1816.46C1072.3 1875.84 1024.16 1923.98 964.775 1923.98H857.238V1816.47Z" fill="#AB9FF1"/>
<path d="M1491.98 1818.56C1491.98 1759.17 1540.13 1711.03 1599.51 1711.03C1658.9 1711.03 1707.04 1759.17 1707.04 1818.55C1707.04 1877.93 1658.9 1926.07 1599.52 1926.07L1491.98 1926.07L1491.98 1818.56Z" fill="#FFCFCF"/>
<path d="M106.62 1284.07C166.003 1284.07 214.143 1332.21 214.143 1391.59C214.143 1450.97 166 1499.11 106.616 1499.11C47.2291 1499.11 -0.91758 1450.97 -0.917583 1391.58L-0.917587 1284.07L106.62 1284.07Z" fill="#6550DE"/>
<path d="M1814.57 1282.98C1873.96 1282.98 1922.1 1331.66 1922.1 1391.04C1922.1 1450.43 1873.96 1499.11 1814.57 1499.11C1755.18 1499.11 1707.04 1450.97 1707.04 1391.58L1707.04 1282.98L1814.57 1282.98Z" fill="#6550DE"/>
<path fill-rule="evenodd" clip-rule="evenodd" d="M427.638 1284.07C546.117 1284.07 642.177 1380.11 642.177 1498.59C642.177 1616.88 546.419 1712.81 428.198 1713.11V1499.15H213.1C213.099 1498.96 213.099 1498.78 213.099 1498.59C213.099 1380.11 309.159 1284.07 427.638 1284.07Z" fill="#FFCFCF"/>
<path fill-rule="evenodd" clip-rule="evenodd" d="M748.663 1925.03C689.28 1925.03 641.133 1876.89 641.133 1817.5C641.133 1758.22 689.128 1710.13 748.383 1709.98L748.383 1817.22L856.193 1817.22C856.194 1817.32 856.194 1817.41 856.194 1817.5C856.194 1876.89 808.047 1925.03 748.663 1925.03Z" fill="#6550DE"/>
<path fill-rule="evenodd" clip-rule="evenodd" d="M320.629 1714.16C261.246 1714.16 213.099 1666.02 213.099 1606.63C213.099 1547.34 261.094 1499.26 320.348 1499.11L320.348 1606.35L428.159 1606.35C428.159 1606.45 428.159 1606.54 428.159 1606.63C428.159 1666.02 380.013 1714.16 320.629 1714.16Z" fill="#EDF0F3"/>
<path fill-rule="evenodd" clip-rule="evenodd" d="M1496.16 1499.11C1496.15 1617.3 1400.33 1713.11 1282.14 1713.11C1163.95 1713.11 1068.13 1617.3 1068.12 1499.11L1496.16 1499.11Z" fill="#E3DEFF"/>
<path fill-rule="evenodd" clip-rule="evenodd" d="M1175.13 1285.11C1234.23 1285.11 1282.14 1333.02 1282.14 1392.11C1282.14 1451.11 1234.38 1498.96 1175.41 1499.11V1392.39H1068.12C1068.12 1392.3 1068.12 1392.2 1068.12 1392.11C1068.12 1333.02 1116.04 1285.11 1175.13 1285.11Z" fill="#2C9AFF"/>
<path fill-rule="evenodd" clip-rule="evenodd" d="M1815.09 1498.59C1874.19 1498.59 1922.1 1546.5 1922.1 1605.59C1922.1 1664.59 1874.34 1712.44 1815.37 1712.59V1605.87H1708.08C1708.08 1605.78 1708.08 1605.68 1708.08 1605.59C1708.08 1546.5 1756 1498.59 1815.09 1498.59Z" fill="#AB9FF1"/>
<path d="M212.938 1391.51C212.938 1332.12 261.085 1283.98 320.472 1283.98C379.856 1283.98 427.999 1332.12 427.999 1391.5C427.999 1450.88 379.859 1499.02 320.476 1499.02H212.938V1391.51Z" fill="#6550DE"/>
<path fill-rule="evenodd" clip-rule="evenodd" d="M1281.62 1926.07C1163.71 1926.07 1067.08 1830.49 1067.08 1712.59C1067.08 1594.88 1163.41 1499.41 1281.06 1499.11L1281.06 1712.03L1496.15 1712.03C1496.16 1712.22 1496.16 1712.41 1496.16 1712.59C1496.16 1830.49 1399.52 1926.07 1281.62 1926.07Z" fill="#FEC246"/>
<path d="M1922.1 1818.54C1922.1 1877.93 1873.95 1926.07 1814.57 1926.07C1755.18 1926.07 1707.04 1877.93 1707.04 1818.55C1707.04 1759.17 1755.18 1711.03 1814.56 1711.03L1922.1 1711.03L1922.1 1818.54Z" fill="#2C9AFF"/>
<rect width="1922.1" height="641.006" transform="matrix(-1 0 0 1 1922.1 0.96582)" fill="#404497"/>
<rect width="212.973" height="426.989" transform="matrix(-1 0 0 1 854.106 0.96582)" fill="#AB9FF1"/>
<rect width="209.841" height="428.033" transform="matrix(-1 0 0 1 1707.04 0.96582)" fill="#AB9FF1"/>
<rect width="212.973" height="426.989" transform="matrix(-1 0 0 1 425.028 214.982)" fill="#AB9FF1"/>
<rect width="213" height="216" transform="matrix(-1 0 0 1 213 0.921875)" fill="#AB9FF1"/>
<rect width="215.061" height="255.776" transform="matrix(-1 0 0 1 1922.1 386.195)" fill="#AB9FF1"/>
<rect width="428" height="216" transform="matrix(-1 0 0 1 1497 0.921875)" fill="#6550DE"/>
<path fill-rule="evenodd" clip-rule="evenodd" d="M1069.17 427.955C1069.17 546.153 972.826 641.971 854.628 641.971C736.43 641.971 640.089 546.153 640.089 427.955L1069.17 427.955Z" fill="#2C9AFF"/>
<path d="M1068.12 215.504C1068.12 97.5946 972.537 2.00977 854.627 2.00977C736.718 2.00977 641.133 97.5946 641.133 215.504C641.133 333.414 736.718 428.999 854.627 428.999C972.537 428.999 1068.12 333.414 1068.12 215.504Z" fill="#F56748"/>
<path d="M-0.917236 217.07L-0.917232 324.079C-0.917229 383.178 46.9921 431.087 106.091 431.087C165.19 431.087 213.099 383.178 213.099 324.079L213.099 217.07L-0.917236 217.07Z" fill="#2C9AFF"/>
<path d="M640.089 430.565C640.089 312.655 544.504 217.07 426.594 217.07H213.1V428.477C213.1 546.387 308.685 641.972 426.594 641.972H640.089V430.565Z" fill="#FEC246"/>
<path d="M1922.1 0.96582H1708.08C1589.89 0.96582 1494.07 96.7844 1494.07 214.982C1494.07 333.181 1589.89 428.999 1708.08 428.999H1922.1V0.96582Z" fill="#EDF0F3"/>
<path d="M-3.00513 535.485C-3.00513 476.098 45.1379 427.955 104.525 427.955C163.913 427.955 212.056 476.098 212.056 535.485C212.056 594.873 163.913 643.016 104.525 643.016H-3.00513V535.485Z" fill="#FFCFCF"/>
<path d="M1282.14 109.54C1282.14 50.1528 1330.28 2.00977 1389.67 2.00977C1449.06 2.00977 1497.2 50.1528 1497.2 109.54C1497.2 168.927 1449.06 217.07 1389.67 217.07H1282.14V109.54Z" fill="#FFCFCF"/>
<path d="M857.238 534.441C857.238 475.054 905.381 426.911 964.768 426.911C1024.16 426.911 1072.3 475.054 1072.3 534.441C1072.3 593.829 1024.16 641.972 964.768 641.972H857.238V534.441Z" fill="#AB9FF1"/>
<path d="M1491.98 536.529C1491.98 477.142 1540.12 428.999 1599.51 428.999C1658.9 428.999 1707.04 477.142 1707.04 536.529C1707.04 595.917 1658.9 644.06 1599.51 644.06L1491.98 644.06L1491.98 536.529Z" fill="#FFCFCF"/>
<path d="M106.613 2.00977C166.001 2.00977 214.144 50.1528 214.144 109.54C214.144 168.927 166.001 217.07 106.613 217.07C47.2259 217.07 -0.917092 168.927 -0.917094 109.54L-0.917099 2.00978L106.613 2.00977Z" fill="#6550DE"/>
<path d="M1813.47 2.00977C1872.86 2.00977 1921 50.1528 1921 109.54C1921 168.927 1872.86 217.07 1813.47 217.07C1754.08 217.07 1705.94 168.927 1705.94 109.54L1705.94 2.00978L1813.47 2.00977Z" fill="#6550DE"/>
<path fill-rule="evenodd" clip-rule="evenodd" d="M427.638 2.00977C546.125 2.00977 642.177 98.0621 642.177 216.549C642.177 334.849 546.427 430.785 428.198 431.087V217.109H213.1C213.099 216.923 213.099 216.736 213.099 216.549C213.099 98.0621 309.151 2.00977 427.638 2.00977Z" fill="#FFCFCF"/>
<path fill-rule="evenodd" clip-rule="evenodd" d="M748.663 643.016C689.276 643.016 641.133 594.873 641.133 535.485C641.133 476.192 689.124 428.107 748.383 427.956L748.383 535.205L856.193 535.205C856.194 535.298 856.194 535.392 856.194 535.485C856.194 594.873 808.051 643.016 748.663 643.016Z" fill="#6550DE"/>
<path fill-rule="evenodd" clip-rule="evenodd" d="M320.63 432.13C261.243 432.13 213.1 383.987 213.1 324.6C213.1 265.307 261.091 217.222 320.349 217.07L320.349 324.32L428.16 324.32C428.16 324.413 428.16 324.507 428.16 324.6C428.16 383.987 380.017 432.13 320.63 432.13Z" fill="#EDF0F3"/>
<path fill-rule="evenodd" clip-rule="evenodd" d="M1496.16 217.07L1496.16 217.07C1496.16 335.269 1400.34 431.087 1282.14 431.087C1163.94 431.087 1068.12 335.269 1068.12 217.07L1068.12 217.07L1496.16 217.07Z" fill="#E3DEFF"/>
<path fill-rule="evenodd" clip-rule="evenodd" d="M1175.13 3.05371C1234.23 3.05371 1282.14 50.963 1282.14 110.062C1282.14 169.068 1234.38 216.919 1175.41 217.07V110.341H1068.12C1068.12 110.248 1068.12 110.155 1068.12 110.062C1068.12 50.963 1116.03 3.05371 1175.13 3.05371Z" fill="#2C9AFF"/>
<path fill-rule="evenodd" clip-rule="evenodd" d="M1815.09 216.549C1874.19 216.549 1922.1 264.458 1922.1 323.557C1922.1 382.563 1874.34 430.414 1815.37 430.565V323.837H1708.08C1708.08 323.743 1708.08 323.65 1708.08 323.557C1708.08 264.458 1755.99 216.549 1815.09 216.549Z" fill="#AB9FF1"/>
<path d="M212.939 109.452C212.939 50.0649 261.082 1.92188 320.47 1.92188C379.857 1.92188 428 50.0649 428 109.452C428 168.84 379.857 216.983 320.47 216.983H212.939V109.452Z" fill="#6550DE"/>
<path fill-rule="evenodd" clip-rule="evenodd" d="M1281.62 644.06C1163.71 644.06 1067.08 548.475 1067.08 430.565C1067.08 312.841 1163.4 217.372 1281.06 217.07L1281.06 430.007L1496.15 430.007C1496.16 430.193 1496.16 430.379 1496.16 430.565C1496.16 548.475 1399.53 644.06 1281.62 644.06Z" fill="#FEC246"/>
<path d="M1922.1 536.529C1922.1 595.917 1873.96 644.06 1814.57 644.06C1755.18 644.06 1707.04 595.917 1707.04 536.529C1707.04 477.142 1755.18 428.999 1814.57 428.999L1922.1 428.999L1922.1 536.529Z" fill="#2C9AFF"/>
</g>
</svg>
